HIERARCHY
ROOT hip
{
	OFFSET 0.000000 0.000000 0.000000 
	CHANNELS 6 Xposition Yposition Zposition Xrotation Zrotation Yrotation
	JOINT abdomen
	{
		OFFSET 0.000000 3.402643 0.000000 
		CHANNELS 3 Xrotation Zrotation Yrotation
		JOINT chest
		{
			OFFSET 0.000000 8.438565 -0.680529 
			CHANNELS 3 Xrotation Zrotation Yrotation
			JOINT neck
			{
				OFFSET 0.000000 10.207942 -0.272212 
				CHANNELS 3 Xrotation Zrotation Yrotation
				JOINT head
				{
					OFFSET 0.000000 3.130431 0.000000 
					CHANNELS 3 Xrotation Zrotation Yrotation
					End Site
					{
						OFFSET 0.000000 3.130435 0.000000 
					}
				}
			}
			JOINT lCollar
			{
				OFFSET 3.470700 6.669187 -0.816635 
				CHANNELS 3 Yrotation Zrotation Xrotation
				JOINT lShldr
				{
					OFFSET 3.198488 0.000000 0.000000 
					CHANNELS 3 Zrotation Yrotation Xrotation
					JOINT lForeArm
					{
						OFFSET 10.139888 0.000000 0.000000 
						CHANNELS 3 Yrotation Zrotation Xrotation
						JOINT lHand
						{
							OFFSET 8.370511 0.000000 0.000000 
							CHANNELS 3 Zrotation Yrotation Xrotation
							End Site
							{
								OFFSET 4.083176 0.000000 0.000000 
							}
						}
					}
				}
			}
			JOINT rCollar
			{
				OFFSET -3.470700 6.669187 -0.816635 
				CHANNELS 3 Yrotation Zrotation Xrotation
				JOINT rShldr
				{
					OFFSET -3.198488 0.000000 0.000000 
					CHANNELS 3 Zrotation Yrotation Xrotation
					JOINT rForeArm
					{
						OFFSET -10.139888 0.000000 0.000000 
						CHANNELS 3 Yrotation Zrotation Xrotation
						JOINT rHand
						{
							OFFSET -8.370511 0.000000 0.000000 
							CHANNELS 3 Zrotation Yrotation Xrotation
							End Site
							{
								OFFSET -4.083176 0.000000 0.000000 
							}
						}
					}
				}
			}
		}
	}
	JOINT lThigh
	{
		OFFSET 5.308129 -1.633274 1.361059 
		CHANNELS 3 Xrotation Zrotation Yrotation
		JOINT lShin
		{
			OFFSET -2.041588 -20.007561 0.000000 
			CHANNELS 3 Xrotation Zrotation Yrotation
			JOINT lFoot
			{
				OFFSET 0.000000 -19.190928 -1.224953 
				CHANNELS 3 Xrotation Yrotation Zrotation
				End Site
				{
					OFFSET 0.000000 -2.449906 4.627600 
				}
			}
		}
	}
	JOINT rThigh
	{
		OFFSET -5.308129 -1.633274 1.361059 
		CHANNELS 3 Xrotation Zrotation Yrotation
		JOINT rShin
		{
			OFFSET 2.041588 -20.007561 0.000000 
			CHANNELS 3 Xrotation Zrotation Yrotation
			JOINT rFoot
			{
				OFFSET 0.000000 -19.190928 -1.224953 
				CHANNELS 3 Xrotation Yrotation Zrotation
				End Site
				{
					OFFSET 0.000000 -2.449906 4.627600 
				}
			}
		}
	}
}
MOTION
Frames: 14
Frame Time: 0.033333
6.702429 40.366489 -14.014536 10.009766 -1.425781 -24.277346 30.976564 0.585938 -8.915915 -23.378906 -0.048828 -8.183601 -23.808594 8.886719 18.478071 11.445313 4.062500 20.380861 0.585938 17.304688 0.791016 41.406250 -70.712891 -103.173828 -42.226563 -3.681641 -57.431019 2.636719 26.357243 0.355887 -21.660156 -6.621094 0.166016 109.580078 85.166016 62.187466 79.765625 3.496094 -51.983021 -15.673829 -28.271486 6.474609 -61.149754 36.130913 5.745562 91.875427 1.854566 -4.218135 -6.401801 6.594231 -4.379974 -49.133183 -10.905942 -9.459006 79.302277 -1.425849 3.224072 -30.316818 7.140877 9.960876 
7.695587 40.564793 -12.403230 12.128906 -0.205078 -33.427765 30.820313 -0.644531 -9.179797 -24.609375 1.884766 -7.841476 -25.898438 8.291017 21.191408 10.576172 4.589844 22.978518 2.851562 18.955078 0.830078 65.957031 -59.101559 -122.322830 -48.896484 -3.515625 -50.819714 0.869141 26.015623 -0.351563 -22.744141 -5.918326 0.147332 56.025391 85.976563 -1.240262 92.412109 3.603516 -57.598267 -22.871094 -24.863283 9.038864 -66.951286 38.602386 1.359860 82.773636 1.582702 -3.796783 -9.040709 4.019108 -4.919106 -50.184574 -12.294934 -10.793067 77.171051 -1.794339 3.402171 -29.201771 14.506963 13.411167 
8.793440 40.707638 -10.326405 13.525391 2.109375 -43.603161 29.628906 -1.816406 -8.476872 -26.171875 2.763672 -6.962420 -26.591797 8.671875 22.921396 9.873048 3.886719 24.551441 5.390625 20.156252 1.061088 75.927734 -48.740234 -128.464371 -56.337891 -3.457031 -44.423241 -1.816406 25.410156 -1.607136 -21.855469 -5.908203 0.245146 46.035156 82.832031 -19.023514 103.730469 3.632813 -58.428356 -27.587891 -20.830080 9.537544 -67.684776 41.503471 -1.697293 70.136871 0.960429 -3.871877 -10.111125 1.934161 -4.716717 -51.630585 -14.951194 -12.049315 75.231552 -1.618572 3.436165 -26.799831 21.614466 15.947252 
9.873290 40.661732 -7.805292 13.710938 4.746094 -53.964844 28.271484 -2.285156 -7.158593 -27.773438 2.949219 -5.595703 -26.582031 9.003906 24.288635 9.687501 2.998047 25.957541 7.978515 20.673826 1.083984 80.966797 -42.158203 -132.194046 -65.927734 -3.330078 -43.104900 -3.535156 24.970703 -2.300564 -19.423828 -5.947266 0.107422 53.652344 78.642578 -15.644721 112.861328 3.710938 -52.910789 -30.849607 -14.394533 7.595228 -63.855419 43.807430 -4.734599 56.994217 -0.131754 -3.265360 -7.224775 -1.160081 -5.339699 -52.704025 -18.466202 -13.935849 73.104309 -1.825802 3.404171 -24.334352 29.530371 18.170355 
10.811120 40.361958 -4.981897 11.943360 6.494141 -63.993038 27.587891 -2.500000 -5.556640 -29.169922 2.773438 -4.022965 -25.849611 9.150390 25.888670 10.039063 2.304688 27.539061 10.185547 20.488283 1.041504 84.462891 -38.701172 -134.010010 -76.376953 -3.222656 -40.468197 -3.251953 24.472658 -2.080078 -16.455076 -5.488281 0.186481 62.900394 74.423828 -7.930048 118.876953 3.681641 -45.625626 -33.330082 -7.802735 4.609375 -56.238083 43.953697 -5.704752 48.901814 -0.401486 -3.333096 -2.137258 -1.189328 -5.166775 -54.086113 -21.949394 -13.565289 71.721451 -1.611010 3.488534 -22.158918 35.993122 18.926743 
11.549820 39.878796 -2.193561 9.492188 7.382813 -72.928429 27.597658 -2.470703 -4.053185 -30.048826 2.607422 -2.802290 -25.292967 9.003906 27.677309 10.585938 1.777344 28.965145 11.757813 19.726563 1.002563 87.968750 -36.699219 -134.898407 -84.833984 -3.144531 -36.972126 -2.705078 23.632813 -1.718750 -14.374999 -4.482422 0.088654 70.390625 71.015625 -0.469280 122.275383 3.261719 -37.753906 -34.687500 -3.564453 1.981816 -51.989265 43.503845 -4.128562 54.870579 -0.297200 -3.407431 -4.361718 3.548745 -4.783602 -56.590282 -24.081331 -9.945156 70.502510 -1.269422 3.484998 -19.905390 39.463078 18.330502 
12.091651 39.413155 0.255057 7.353516 7.558594 -79.998711 28.134768 -2.470703 -2.939895 -30.400391 2.773438 -1.757340 -24.921873 8.584202 28.791128 10.927734 1.416016 30.019527 13.183594 19.267578 0.781250 91.083984 -36.025391 -136.275284 -91.259766 -3.046875 -35.341278 -1.816406 22.617188 -1.376953 -12.988281 -3.564453 0.068966 74.677734 67.900383 3.768814 123.886719 3.046875 -31.123568 -34.697266 0.605469 -0.527241 -49.021492 43.679970 1.158301 62.610546 0.414395 -3.552206 -8.979858 6.322494 -4.015757 -58.825653 -24.959894 -5.646594 69.965538 -1.259573 3.480321 -17.323851 38.325970 16.273544 
12.463448 39.072247 2.173648 6.142578 7.714844 -84.197906 28.300781 -1.982281 -2.207450 -30.576172 2.949219 -1.229966 -24.345701 7.978516 29.561899 11.093750 1.230469 30.556852 13.320313 19.140625 0.963594 93.671875 -37.412109 -137.037186 -96.699219 -2.988281 -32.333477 -0.380859 22.841799 -0.908203 -11.425781 -3.515625 0.000599 75.634766 63.593746 4.676715 125.195320 2.949219 -26.719254 -33.769531 4.501954 -3.007044 -47.931675 43.634766 5.230096 68.227470 0.403845 -3.641423 -12.657505 7.979057 -3.166348 -60.483791 -25.427599 -2.802089 69.955315 -1.269441 3.482914 -15.297928 33.773838 14.158691 
12.702047 38.881104 3.551241 5.791016 7.558594 -85.957031 28.466795 -0.908203 -1.621094 -30.576172 2.949219 -1.229966 -23.095703 6.982422 30.196499 10.576171 1.230469 30.888674 12.500000 19.033203 0.885488 96.220703 -40.986324 -138.066406 -101.142578 -2.851563 -29.599123 0.732422 23.193359 -0.341797 -10.019531 -3.330078 0.117188 74.287109 58.535152 4.461455 126.855461 2.763672 -24.941406 -31.367186 8.251954 -4.920471 -47.567226 43.416748 7.360604 71.751770 0.745076 -3.734656 -15.088661 8.651573 -2.692317 -60.939220 -25.846289 -0.820924 69.424942 -1.288676 3.275820 -14.699863 29.814247 12.852056 
12.861952 38.771999 4.449842 6.142579 7.353516 -86.307343 28.623047 0.107422 -1.250000 -30.771484 2.949440 -1.425304 -21.826172 5.292969 30.909109 9.677734 1.953125 31.210939 11.201172 18.750002 0.885533 -81.308594 -133.417969 40.178452 -104.306641 -2.910156 -28.974113 -0.546875 22.841797 -0.908203 -9.130859 -3.300781 -0.009203 72.509766 52.451176 4.499930 127.880867 2.841797 -25.156734 -25.957031 11.933594 -5.486260 -48.454453 43.278320 7.617257 73.622101 1.242331 -3.975755 -16.169336 8.677688 -2.346664 -60.357433 -26.180134 0.297093 68.212349 -1.103622 3.205354 -13.663396 28.087339 11.946506 
12.973562 38.692699 4.951490 6.679687 7.011719 -85.585938 28.808594 0.820313 -1.191266 -30.400391 2.773438 -1.581559 -20.761719 3.945313 31.591793 9.150390 2.480469 31.562502 10.078124 17.949221 0.888672 -78.349602 -127.187492 38.537140 -107.148438 -2.861328 -30.399902 -1.220703 22.636721 -1.191406 -8.261718 -2.968750 0.088396 70.410156 45.664063 4.440579 128.730469 2.900391 -26.230961 -19.423826 14.042968 -4.509290 -49.455978 43.400818 7.305271 75.238739 1.066753 -4.028210 -16.843557 8.501144 -2.640035 -59.510395 -26.542593 0.990138 66.987335 -1.083845 3.313601 -12.074507 27.433104 10.675728 
13.048085 38.620800 5.127728 7.197266 6.679688 -84.559410 29.179688 1.308594 -1.005636 -30.048826 3.134766 -1.571732 -20.039063 2.246094 32.304688 8.281250 3.183594 31.875540 8.535156 16.386719 0.749198 -75.214844 -120.107430 37.462254 -109.775391 -2.861328 -29.628418 -0.830078 23.710987 -1.031231 -7.910156 -2.578125 -0.019531 68.339844 39.072269 4.439749 129.658203 3.046875 -28.623568 -16.054688 13.945919 -3.660090 -50.943336 43.658203 6.345129 75.917343 1.233012 -3.760511 -16.461700 6.740240 -3.236959 -58.649353 -26.698177 1.101394 66.461479 -1.083945 3.263705 -10.743007 27.827456 10.355280 
13.081235 38.536854 5.026731 7.900391 6.152344 -83.133713 29.531252 1.494141 -0.947011 -29.345703 3.662110 -1.737658 -19.667969 0.732422 32.802799 7.568360 3.349610 32.031822 7.158204 14.326172 0.573756 -71.328125 -111.992188 36.748756 -111.171875 -2.626953 -25.087442 -0.830078 23.877007 -1.031205 -7.734375 -2.412109 0.019942 67.382813 33.300781 4.331535 130.820313 3.310547 -35.058590 -16.240232 13.935548 -3.679287 -52.705238 44.033295 4.782000 76.277924 1.246801 -3.774868 -16.216244 5.558146 -3.471712 -58.111244 -27.039370 0.960143 66.987335 -1.083838 3.313605 -10.550174 27.685900 10.171378 
13.074439 38.457085 4.697506 8.584202 5.791161 -81.219521 29.873049 1.933594 -1.161780 -28.632813 4.189453 -1.903584 -19.472656 -0.488281 32.929604 6.699219 3.525391 31.826773 5.908203 12.148438 0.449219 -63.457027 -103.574219 31.806913 -111.337891 -2.656250 -22.284704 -1.220703 22.812502 -1.191406 -8.095703 -1.689453 -0.077837 66.484375 29.257813 3.076172 132.529282 3.417969 -43.378906 -18.730469 15.586707 -4.831861 -54.500347 44.061092 2.835057 75.908386 1.222562 -3.748352 -15.544209 4.335443 -3.976912 -57.831566 -27.441200 1.226563 68.209358 -1.259024 3.403268 -10.702266 26.365328 10.287652 
